<svg xmlns="http://www.w3.org/2000/svg" width="1440" height="900"><path d="M739,487L705,407L657,469Z" fill="#427a75" stroke="#427a75" stroke-width="1.51"/><path d="M739,487L755,380L705,407Z" fill="#417a75" stroke="#417a75" stroke-width="1.51"/><path d="M657,469L699,562L739,487Z" fill="#407675" stroke="#407675" stroke-width="1.51"/><path d="M657,469L610,564L699,562Z" fill="#3e7373" stroke="#3e7373" stroke-width="1.51"/><path d="M561,432L576,482L657,469Z" fill="#3e7772" stroke="#3e7772" stroke-width="1.51"/><path d="M576,482L610,564L657,469Z" fill="#3d7472" stroke="#3d7472" stroke-width="1.51"/><path d="M596,332L561,432L657,469Z" fill="#3c7670" stroke="#3c7670" stroke-width="1.51"/><path d="M596,332L657,469L705,407Z" fill="#3e7772" stroke="#3e7772" stroke-width="1.51"/><path d="M699,562L755,593L739,487Z" fill="#407275" stroke="#407275" stroke-width="1.51"/><path d="M882,421L791,320L755,380Z" fill="#3d7472" stroke="#3d7472" stroke-width="1.51"/><path d="M706,658L755,593L699,562Z" fill="#3e6f74" stroke="#3e6f74" stroke-width="1.51"/><path d="M653,296L596,332L705,407Z" fill="#3a746f" stroke="#3a746f" stroke-width="1.51"/><path d="M882,421L755,380L739,487Z" fill="#407675" stroke="#407675" stroke-width="1.51"/><path d="M653,296L705,407L755,380Z" fill="#3d7771" stroke="#3d7771" stroke-width="1.51"/><path d="M791,320L653,296L755,380Z" fill="#3c7570" stroke="#3c7570" stroke-width="1.51"/><path d="M755,593L867,521L739,487Z" fill="#3f7174" stroke="#3f7174" stroke-width="1.51"/><path d="M867,521L882,421L739,487Z" fill="#407375" stroke="#407375" stroke-width="1.51"/><path d="M576,482L511,516L610,564Z" fill="#3b7271" stroke="#3b7271" stroke-width="1.51"/><path d="M561,432L511,516L576,482Z" fill="#3c7570" stroke="#3c7570" stroke-width="1.51"/><path d="M508,374L511,516L561,432Z" fill="#3b7570" stroke="#3b7570" stroke-width="1.51"/><path d="M610,564L706,658L699,562Z" fill="#3d6e73" stroke="#3d6e73" stroke-width="1.51"/><path d="M755,593L857,592L867,521Z" fill="#3e6c73" stroke="#3e6c73" stroke-width="1.51"/><path d="M588,669L706,658L610,564Z" fill="#3a6b71" stroke="#3a6b71" stroke-width="1.51"/><path d="M882,421L840,305L791,320Z" fill="#3b7171" stroke="#3b7171" stroke-width="1.51"/><path d="M791,320L748,236L653,296Z" fill="#39736e" stroke="#39736e" stroke-width="1.51"/><path d="M836,633L857,592L755,593Z" fill="#3d6973" stroke="#3d6973" stroke-width="1.51"/><path d="M867,521L935,478L882,421Z" fill="#3f7074" stroke="#3f7074" stroke-width="1.51"/><path d="M596,332L508,374L561,432Z" fill="#39736e" stroke="#39736e" stroke-width="1.51"/><path d="M513,287L508,374L596,332Z" fill="#36716b" stroke="#36716b" stroke-width="1.51"/><path d="M653,296L610,265L596,332Z" fill="#37726c" stroke="#37726c" stroke-width="1.51"/><path d="M677,208L610,265L653,296Z" fill="#35716b" stroke="#35716b" stroke-width="1.51"/><path d="M745,683L836,633L755,593Z" fill="#3c6973" stroke="#3c6973" stroke-width="1.51"/><path d="M841,223L748,236L791,320Z" fill="#37706d" stroke="#37706d" stroke-width="1.51"/><path d="M706,658L745,683L755,593Z" fill="#3d6a73" stroke="#3d6a73" stroke-width="1.51"/><path d="M964,555L867,521L857,592Z" fill="#3c6973" stroke="#3c6973" stroke-width="1.51"/><path d="M964,555L935,478L867,521Z" fill="#3d6b73" stroke="#3d6b73" stroke-width="1.51"/><path d="M882,421L919,330L840,305Z" fill="#3b6f70" stroke="#3b6f70" stroke-width="1.51"/><path d="M481,604L588,669L610,564Z" fill="#396a6f" stroke="#396a6f" stroke-width="1.51"/><path d="M706,658L691,721L745,683Z" fill="#3c6873" stroke="#3c6873" stroke-width="1.51"/><path d="M748,236L677,208L653,296Z" fill="#36726c" stroke="#36726c" stroke-width="1.51"/><path d="M840,305L841,223L791,320Z" fill="#386f6d" stroke="#386f6d" stroke-width="1.51"/><path d="M954,379L919,330L882,421Z" fill="#3b6e71" stroke="#3b6e71" stroke-width="1.51"/><path d="M523,236L513,287L610,265Z" fill="#336e68" stroke="#336e68" stroke-width="1.51"/><path d="M610,265L513,287L596,332Z" fill="#35706b" stroke="#35706b" stroke-width="1.51"/><path d="M935,478L954,379L882,421Z" fill="#3d7073" stroke="#3d7073" stroke-width="1.51"/><path d="M588,669L691,721L706,658Z" fill="#3a6771" stroke="#3a6771" stroke-width="1.51"/><path d="M745,683L785,749L836,633Z" fill="#3a6572" stroke="#3a6572" stroke-width="1.51"/><path d="M511,516L481,604L610,564Z" fill="#396d6f" stroke="#396d6f" stroke-width="1.51"/><path d="M448,589L481,604L511,516Z" fill="#376b6d" stroke="#376b6d" stroke-width="1.51"/><path d="M448,589L511,516L395,470Z" fill="#376e6d" stroke="#376e6d" stroke-width="1.51"/><path d="M919,330L841,223L840,305Z" fill="#376d6d" stroke="#376d6d" stroke-width="1.51"/><path d="M748,236L692,177L677,208Z" fill="#34706a" stroke="#34706a" stroke-width="1.51"/><path d="M751,140L692,177L748,236Z" fill="#346f6a" stroke="#346f6a" stroke-width="1.51"/><path d="M615,165L523,236L610,265Z" fill="#316e67" stroke="#316e67" stroke-width="1.51"/><path d="M928,666L964,555L857,592Z" fill="#3b6572" stroke="#3b6572" stroke-width="1.51"/><path d="M935,478L1013,411L954,379Z" fill="#3d6e72" stroke="#3d6e72" stroke-width="1.51"/><path d="M615,165L610,265L677,208Z" fill="#326e69" stroke="#326e69" stroke-width="1.51"/><path d="M481,604L496,660L588,669Z" fill="#37666e" stroke="#37666e" stroke-width="1.51"/><path d="M418,392L511,516L508,374Z" fill="#39736e" stroke="#39736e" stroke-width="1.51"/><path d="M418,392L508,374L438,313Z" fill="#34706a" stroke="#34706a" stroke-width="1.51"/><path d="M588,669L602,730L691,721Z" fill="#386470" stroke="#386470" stroke-width="1.51"/><path d="M402,673L496,660L481,604Z" fill="#34656c" stroke="#34656c" stroke-width="1.51"/><path d="M438,313L508,374L513,287Z" fill="#34706a" stroke="#34706a" stroke-width="1.51"/><path d="M499,753L602,730L588,669Z" fill="#36626e" stroke="#36626e" stroke-width="1.51"/><path d="M435,218L438,313L513,287Z" fill="#306d66" stroke="#306d66" stroke-width="1.51"/><path d="M692,177L615,165L677,208Z" fill="#316e68" stroke="#316e68" stroke-width="1.51"/><path d="M691,721L785,749L745,683Z" fill="#3a6572" stroke="#3a6572" stroke-width="1.51"/><path d="M836,633L928,666L857,592Z" fill="#3b6572" stroke="#3b6572" stroke-width="1.51"/><path d="M769,833L785,749L691,721Z" fill="#396171" stroke="#396171" stroke-width="1.51"/><path d="M846,783L928,666L836,633Z" fill="#396071" stroke="#396071" stroke-width="1.51"/><path d="M418,392L395,470L511,516Z" fill="#39726e" stroke="#39726e" stroke-width="1.51"/><path d="M347,460L395,470L418,392Z" fill="#36726c" stroke="#36726c" stroke-width="1.51"/><path d="M1037,265L956,226L919,330Z" fill="#35676c" stroke="#35676c" stroke-width="1.51"/><path d="M956,226L868,179L841,223Z" fill="#336969" stroke="#336969" stroke-width="1.51"/><path d="M1028,512L1013,411L935,478Z" fill="#3d6c74" stroke="#3d6c74" stroke-width="1.51"/><path d="M1028,512L935,478L964,555Z" fill="#3c6973" stroke="#3c6973" stroke-width="1.51"/><path d="M692,177L695,78L615,165Z" fill="#306c66" stroke="#306c66" stroke-width="1.51"/><path d="M841,223L751,140L748,236Z" fill="#336d6a" stroke="#336d6a" stroke-width="1.51"/><path d="M841,223L868,179L751,140Z" fill="#326b69" stroke="#326b69" stroke-width="1.51"/><path d="M956,226L841,223L919,330Z" fill="#356a6b" stroke="#356a6b" stroke-width="1.51"/><path d="M1047,561L1028,512L964,555Z" fill="#3b6572" stroke="#3b6572" stroke-width="1.51"/><path d="M1048,296L919,330L954,379Z" fill="#38696f" stroke="#38696f" stroke-width="1.51"/><path d="M395,470L356,569L448,589Z" fill="#356b6b" stroke="#356b6b" stroke-width="1.51"/><path d="M402,673L499,753L496,660Z" fill="#33616b" stroke="#33616b" stroke-width="1.51"/><path d="M314,429L347,460L418,392Z" fill="#35706b" stroke="#35706b" stroke-width="1.51"/><path d="M785,749L846,783L836,633Z" fill="#396071" stroke="#396071" stroke-width="1.51"/><path d="M769,833L846,783L785,749Z" fill="#375c70" stroke="#375c70" stroke-width="1.51"/><path d="M323,312L314,429L418,392Z" fill="#326e68" stroke="#326e68" stroke-width="1.51"/><path d="M523,236L435,218L513,287Z" fill="#306c66" stroke="#306c66" stroke-width="1.51"/><path d="M471,169L435,218L523,236Z" fill="#2d6a64" stroke="#2d6a64" stroke-width="1.51"/><path d="M602,730L649,809L691,721Z" fill="#37616f" stroke="#37616f" stroke-width="1.51"/><path d="M593,845L649,809L602,730Z" fill="#355d6e" stroke="#355d6e" stroke-width="1.51"/><path d="M1028,512L1079,472L1013,411Z" fill="#3c6a73" stroke="#3c6a73" stroke-width="1.51"/><path d="M1051,646L1047,561L964,555Z" fill="#396171" stroke="#396171" stroke-width="1.51"/><path d="M1051,646L964,555L928,666Z" fill="#396071" stroke="#396071" stroke-width="1.51"/><path d="M496,660L499,753L588,669Z" fill="#36636d" stroke="#36636d" stroke-width="1.51"/><path d="M402,673L481,604L448,589Z" fill="#35676c" stroke="#35676c" stroke-width="1.51"/><path d="M347,460L356,569L395,470Z" fill="#356e6b" stroke="#356e6b" stroke-width="1.51"/><path d="M615,165L471,169L523,236Z" fill="#2e6b65" stroke="#2e6b65" stroke-width="1.51"/><path d="M564,85L471,169L615,165Z" fill="#2b6963" stroke="#2b6963" stroke-width="1.51"/><path d="M356,569L402,673L448,589Z" fill="#33666b" stroke="#33666b" stroke-width="1.51"/><path d="M1047,561L1079,472L1028,512Z" fill="#3b6572" stroke="#3b6572" stroke-width="1.51"/><path d="M1013,411L1048,296L954,379Z" fill="#396970" stroke="#396970" stroke-width="1.51"/><path d="M751,140L695,78L692,177Z" fill="#316e67" stroke="#316e67" stroke-width="1.51"/><path d="M732,66L695,78L751,140Z" fill="#2f6c66" stroke="#2f6c66" stroke-width="1.51"/><path d="M837,76L751,140L868,179Z" fill="#306966" stroke="#306966" stroke-width="1.51"/><path d="M846,783L951,740L928,666Z" fill="#375b70" stroke="#375b70" stroke-width="1.51"/><path d="M1105,438L1048,296L1013,411Z" fill="#396770" stroke="#396770" stroke-width="1.51"/><path d="M649,809L769,833L691,721Z" fill="#386070" stroke="#386070" stroke-width="1.51"/><path d="M846,783L954,822L951,740Z" fill="#35576f" stroke="#35576f" stroke-width="1.51"/><path d="M956,226L921,132L868,179Z" fill="#316668" stroke="#316668" stroke-width="1.51"/><path d="M1048,296L1037,265L919,330Z" fill="#36676d" stroke="#36676d" stroke-width="1.51"/><path d="M1012,164L921,132L956,226Z" fill="#306467" stroke="#306467" stroke-width="1.51"/><path d="M323,312L418,392L438,313Z" fill="#316e67" stroke="#316e67" stroke-width="1.51"/><path d="M347,460L274,524L356,569Z" fill="#346c6a" stroke="#346c6a" stroke-width="1.51"/><path d="M837,76L732,66L751,140Z" fill="#2e6a65" stroke="#2e6a65" stroke-width="1.51"/><path d="M564,-23L564,85L695,78Z" fill="#286761" stroke="#286761" stroke-width="1.51"/><path d="M695,78L564,85L615,165Z" fill="#2c6a64" stroke="#2c6a64" stroke-width="1.51"/><path d="M1018,747L1051,646L928,666Z" fill="#365a70" stroke="#365a70" stroke-width="1.51"/><path d="M1190,560L1105,438L1079,472Z" fill="#3a6472" stroke="#3a6472" stroke-width="1.51"/><path d="M435,218L359,254L438,313Z" fill="#2e6b64" stroke="#2e6b64" stroke-width="1.51"/><path d="M356,146L359,254L435,218Z" fill="#296861" stroke="#296861" stroke-width="1.51"/><path d="M385,139L435,218L471,169Z" fill="#296861" stroke="#296861" stroke-width="1.51"/><path d="M921,132L837,76L868,179Z" fill="#2f6666" stroke="#2f6666" stroke-width="1.51"/><path d="M1079,472L1105,438L1013,411Z" fill="#3c6972" stroke="#3c6972" stroke-width="1.51"/><path d="M1048,296L1087,267L1037,265Z" fill="#33636b" stroke="#33636b" stroke-width="1.51"/><path d="M1113,571L1079,472L1047,561Z" fill="#3a6271" stroke="#3a6271" stroke-width="1.51"/><path d="M649,809L752,901L769,833Z" fill="#375c70" stroke="#375c70" stroke-width="1.51"/><path d="M503,811L593,845L602,730Z" fill="#345c6c" stroke="#345c6c" stroke-width="1.51"/><path d="M503,811L602,730L499,753Z" fill="#345d6c" stroke="#345d6c" stroke-width="1.51"/><path d="M359,254L323,312L438,313Z" fill="#2e6b65" stroke="#2e6b65" stroke-width="1.51"/><path d="M423,778L503,811L499,753Z" fill="#315b6a" stroke="#315b6a" stroke-width="1.51"/><path d="M1105,438L1086,291L1048,296Z" fill="#36656e" stroke="#36656e" stroke-width="1.51"/><path d="M1037,265L1012,164L956,226Z" fill="#316469" stroke="#316469" stroke-width="1.51"/><path d="M769,833L879,841L846,783Z" fill="#35596f" stroke="#35596f" stroke-width="1.51"/><path d="M951,740L1018,747L928,666Z" fill="#365a70" stroke="#365a70" stroke-width="1.51"/><path d="M840,905L879,841L769,833Z" fill="#34556e" stroke="#34556e" stroke-width="1.51"/><path d="M1087,267L1012,164L1037,265Z" fill="#316269" stroke="#316269" stroke-width="1.51"/><path d="M921,132L923,35L837,76Z" fill="#2b6464" stroke="#2b6464" stroke-width="1.51"/><path d="M402,673L423,778L499,753Z" fill="#325d6a" stroke="#325d6a" stroke-width="1.51"/><path d="M356,569L323,647L402,673Z" fill="#316469" stroke="#316469" stroke-width="1.51"/><path d="M232,563L323,647L356,569Z" fill="#306568" stroke="#306568" stroke-width="1.51"/><path d="M1051,646L1113,571L1047,561Z" fill="#385e71" stroke="#385e71" stroke-width="1.51"/><path d="M335,766L423,778L402,673Z" fill="#2f5c68" stroke="#2f5c68" stroke-width="1.51"/><path d="M1086,291L1087,267L1048,296Z" fill="#33626b" stroke="#33626b" stroke-width="1.51"/><path d="M1167,326L1087,267L1086,291Z" fill="#33616b" stroke="#33616b" stroke-width="1.51"/><path d="M1051,646L1118,681L1113,571Z" fill="#365a70" stroke="#365a70" stroke-width="1.51"/><path d="M954,822L1018,747L951,740Z" fill="#34556f" stroke="#34556f" stroke-width="1.51"/><path d="M314,429L274,524L347,460Z" fill="#346f6a" stroke="#346f6a" stroke-width="1.51"/><path d="M253,393L274,524L314,429Z" fill="#336f69" stroke="#336f69" stroke-width="1.51"/><path d="M879,841L954,822L846,783Z" fill="#34566f" stroke="#34566f" stroke-width="1.51"/><path d="M431,33L385,139L471,169Z" fill="#25655e" stroke="#25655e" stroke-width="1.51"/><path d="M236,245L239,331L323,312Z" fill="#2a6862" stroke="#2a6862" stroke-width="1.51"/><path d="M688,924L752,901L649,809Z" fill="#35596f" stroke="#35596f" stroke-width="1.51"/><path d="M879,841L960,927L954,822Z" fill="#31506d" stroke="#31506d" stroke-width="1.51"/><path d="M323,312L253,393L314,429Z" fill="#306d66" stroke="#306d66" stroke-width="1.51"/><path d="M239,331L253,393L323,312Z" fill="#2d6b64" stroke="#2d6b64" stroke-width="1.51"/><path d="M732,66L671,-53L695,78Z" fill="#2b6963" stroke="#2b6963" stroke-width="1.51"/><path d="M564,85L498,37L471,169Z" fill="#276760" stroke="#276760" stroke-width="1.51"/><path d="M837,76L761,-3L732,66Z" fill="#2b6763" stroke="#2b6763" stroke-width="1.51"/><path d="M818,-24L761,-3L837,76Z" fill="#296461" stroke="#296461" stroke-width="1.51"/><path d="M423,778L443,838L503,811Z" fill="#2f5869" stroke="#2f5869" stroke-width="1.51"/><path d="M503,811L569,946L593,845Z" fill="#31566b" stroke="#31566b" stroke-width="1.51"/><path d="M593,845L688,924L649,809Z" fill="#34596e" stroke="#34596e" stroke-width="1.51"/><path d="M358,858L443,838L423,778Z" fill="#2e5667" stroke="#2e5667" stroke-width="1.51"/><path d="M385,139L356,146L435,218Z" fill="#286760" stroke="#286760" stroke-width="1.51"/><path d="M363,35L356,146L385,139Z" fill="#23645c" stroke="#23645c" stroke-width="1.51"/><path d="M564,-23L498,37L564,85Z" fill="#25655e" stroke="#25655e" stroke-width="1.51"/><path d="M569,946L688,924L593,845Z" fill="#32556c" stroke="#32556c" stroke-width="1.51"/><path d="M865,999L840,905L752,901Z" fill="#33536e" stroke="#33536e" stroke-width="1.51"/><path d="M752,901L840,905L769,833Z" fill="#34566f" stroke="#34566f" stroke-width="1.51"/><path d="M1135,748L1118,681L1018,747Z" fill="#33536e" stroke="#33536e" stroke-width="1.51"/><path d="M1018,747L1118,681L1051,646Z" fill="#35576f" stroke="#35576f" stroke-width="1.51"/><path d="M1020,56L923,35L921,132Z" fill="#2a6063" stroke="#2a6063" stroke-width="1.51"/><path d="M1020,56L921,132L1012,164Z" fill="#2c6064" stroke="#2c6064" stroke-width="1.51"/><path d="M174,470L232,563L274,524Z" fill="#306967" stroke="#306967" stroke-width="1.51"/><path d="M236,245L323,312L359,254Z" fill="#2a6962" stroke="#2a6962" stroke-width="1.51"/><path d="M1089,61L1020,56L1012,164Z" fill="#2a5d63" stroke="#2a5d63" stroke-width="1.51"/><path d="M1105,438L1167,326L1086,291Z" fill="#36636e" stroke="#36636e" stroke-width="1.51"/><path d="M1211,439L1167,326L1105,438Z" fill="#386370" stroke="#386370" stroke-width="1.51"/><path d="M1190,560L1079,472L1113,571Z" fill="#396071" stroke="#396071" stroke-width="1.51"/><path d="M323,647L335,766L402,673Z" fill="#2f5f68" stroke="#2f5f68" stroke-width="1.51"/><path d="M221,655L335,766L323,647Z" fill="#2e5d66" stroke="#2e5d66" stroke-width="1.51"/><path d="M274,524L232,563L356,569Z" fill="#316868" stroke="#316868" stroke-width="1.51"/><path d="M186,437L274,524L253,393Z" fill="#326e68" stroke="#326e68" stroke-width="1.51"/><path d="M923,35L818,-24L837,76Z" fill="#2a6361" stroke="#2a6361" stroke-width="1.51"/><path d="M671,-53L564,-23L695,78Z" fill="#276660" stroke="#276660" stroke-width="1.51"/><path d="M671,-53L732,66L761,-3Z" fill="#2a6862" stroke="#2a6862" stroke-width="1.51"/><path d="M498,37L431,33L471,169Z" fill="#25655e" stroke="#25655e" stroke-width="1.51"/><path d="M1118,681L1190,560L1113,571Z" fill="#365a70" stroke="#365a70" stroke-width="1.51"/><path d="M414,-55L431,33L498,37Z" fill="#20615a" stroke="#20615a" stroke-width="1.51"/><path d="M1224,499L1211,439L1105,438Z" fill="#3a6472" stroke="#3a6472" stroke-width="1.51"/><path d="M512,958L569,946L503,811Z" fill="#2f5369" stroke="#2f5369" stroke-width="1.51"/><path d="M865,999L960,927L840,905Z" fill="#314f6d" stroke="#314f6d" stroke-width="1.51"/><path d="M512,958L503,811L443,838Z" fill="#2e5569" stroke="#2e5569" stroke-width="1.51"/><path d="M741,-121L671,-53L761,-3Z" fill="#296862" stroke="#296862" stroke-width="1.51"/><path d="M1127,119L1012,164L1087,267Z" fill="#2e5f67" stroke="#2e5f67" stroke-width="1.51"/><path d="M923,35L842,-83L818,-24Z" fill="#276160" stroke="#276160" stroke-width="1.51"/><path d="M242,161L359,254L356,146Z" fill="#26655e" stroke="#26655e" stroke-width="1.51"/><path d="M242,161L236,245L359,254Z" fill="#26665f" stroke="#26665f" stroke-width="1.51"/><path d="M239,331L186,437L253,393Z" fill="#2e6b65" stroke="#2e6b65" stroke-width="1.51"/><path d="M126,327L186,437L239,331Z" fill="#2b6963" stroke="#2b6963" stroke-width="1.51"/><path d="M149,596L221,655L232,563Z" fill="#2d6165" stroke="#2d6165" stroke-width="1.51"/><path d="M232,563L221,655L323,647Z" fill="#2f6266" stroke="#2f6266" stroke-width="1.51"/><path d="M1080,865L1135,748L1018,747Z" fill="#314f6d" stroke="#314f6d" stroke-width="1.51"/><path d="M1118,681L1200,685L1190,560Z" fill="#34566f" stroke="#34566f" stroke-width="1.51"/><path d="M1048,870L1018,747L954,822Z" fill="#32516d" stroke="#32516d" stroke-width="1.51"/><path d="M1271,494L1224,499L1282,579Z" fill="#365b70" stroke="#365b70" stroke-width="1.51"/><path d="M1190,560L1224,499L1105,438Z" fill="#396171" stroke="#396171" stroke-width="1.51"/><path d="M186,437L174,470L274,524Z" fill="#306c67" stroke="#306c67" stroke-width="1.51"/><path d="M52,436L174,470L186,437Z" fill="#2e6c65" stroke="#2e6c65" stroke-width="1.51"/><path d="M252,811L358,858L335,766Z" fill="#2b5465" stroke="#2b5465" stroke-width="1.51"/><path d="M335,766L358,858L423,778Z" fill="#2d5767" stroke="#2d5767" stroke-width="1.51"/><path d="M1167,326L1201,267L1087,267Z" fill="#325f6a" stroke="#325f6a" stroke-width="1.51"/><path d="M1290,287L1201,267L1167,326Z" fill="#315c6a" stroke="#315c6a" stroke-width="1.51"/><path d="M1290,287L1167,326L1211,439Z" fill="#345e6d" stroke="#345e6d" stroke-width="1.51"/><path d="M601,-118L529,-51L564,-23Z" fill="#24645d" stroke="#24645d" stroke-width="1.51"/><path d="M564,-23L529,-51L498,37Z" fill="#22635c" stroke="#22635c" stroke-width="1.51"/><path d="M818,-24L741,-121L761,-3Z" fill="#286661" stroke="#286661" stroke-width="1.51"/><path d="M1020,56L961,-16L923,35Z" fill="#285d60" stroke="#285d60" stroke-width="1.51"/><path d="M1002,-50L961,-16L1020,56Z" fill="#265b5f" stroke="#265b5f" stroke-width="1.51"/><path d="M840,905L960,927L879,841Z" fill="#31506d" stroke="#31506d" stroke-width="1.51"/><path d="M698,1011L752,901L688,924Z" fill="#35586f" stroke="#35586f" stroke-width="1.51"/><path d="M569,946L698,1011L688,924Z" fill="#33566d" stroke="#33566d" stroke-width="1.51"/><path d="M393,907L512,958L443,838Z" fill="#2c5167" stroke="#2c5167" stroke-width="1.51"/><path d="M960,927L1048,870L954,822Z" fill="#304d6d" stroke="#304d6d" stroke-width="1.51"/><path d="M431,33L363,35L385,139Z" fill="#21635b" stroke="#21635b" stroke-width="1.51"/><path d="M349,-19L363,35L431,33Z" fill="#1d6059" stroke="#1d6059" stroke-width="1.51"/><path d="M1199,168L1127,119L1087,267Z" fill="#2d5c66" stroke="#2d5c66" stroke-width="1.51"/><path d="M236,245L126,327L239,331Z" fill="#286760" stroke="#286760" stroke-width="1.51"/><path d="M238,63L242,161L356,146Z" fill="#20625b" stroke="#20625b" stroke-width="1.51"/><path d="M1194,720L1118,681L1135,748Z" fill="#32516e" stroke="#32516e" stroke-width="1.51"/><path d="M1194,720L1200,685L1118,681Z" fill="#32526e" stroke="#32526e" stroke-width="1.51"/><path d="M358,858L393,907L443,838Z" fill="#2c5266" stroke="#2c5266" stroke-width="1.51"/><path d="M1127,119L1089,61L1012,164Z" fill="#2b5c64" stroke="#2b5c64" stroke-width="1.51"/><path d="M512,958L562,992L569,946Z" fill="#2f536a" stroke="#2f536a" stroke-width="1.51"/><path d="M530,997L562,992L512,958Z" fill="#2f5369" stroke="#2f5369" stroke-width="1.51"/><path d="M961,-16L842,-83L923,35Z" fill="#275f60" stroke="#275f60" stroke-width="1.51"/><path d="M671,-53L601,-118L564,-23Z" fill="#26655f" stroke="#26655f" stroke-width="1.51"/><path d="M562,992L698,1011L569,946Z" fill="#32556c" stroke="#32556c" stroke-width="1.51"/><path d="M1048,870L1080,865L1018,747Z" fill="#304e6d" stroke="#304e6d" stroke-width="1.51"/><path d="M1055,916L1080,865L1048,870Z" fill="#2e486c" stroke="#2e486c" stroke-width="1.51"/><path d="M1206,807L1194,720L1135,748Z" fill="#304c6d" stroke="#304c6d" stroke-width="1.51"/><path d="M960,927L1055,916L1048,870Z" fill="#2e496c" stroke="#2e496c" stroke-width="1.51"/><path d="M749,1041L865,999L752,901Z" fill="#33546e" stroke="#33546e" stroke-width="1.51"/><path d="M562,992L749,1041L698,1011Z" fill="#33566d" stroke="#33566d" stroke-width="1.51"/><path d="M407,1029L530,997L512,958Z" fill="#2d5268" stroke="#2d5268" stroke-width="1.51"/><path d="M1224,499L1271,494L1211,439Z" fill="#386071" stroke="#386071" stroke-width="1.51"/><path d="M1282,579L1224,499L1190,560Z" fill="#365a70" stroke="#365a70" stroke-width="1.51"/><path d="M1282,579L1190,560L1200,685Z" fill="#34566f" stroke="#34566f" stroke-width="1.51"/><path d="M174,470L149,596L232,563Z" fill="#2e6665" stroke="#2e6665" stroke-width="1.51"/><path d="M215,771L252,811L335,766Z" fill="#2a5664" stroke="#2a5664" stroke-width="1.51"/><path d="M358,858L322,948L393,907Z" fill="#294f65" stroke="#294f65" stroke-width="1.51"/><path d="M1127,119L1195,91L1089,61Z" fill="#285862" stroke="#285862" stroke-width="1.51"/><path d="M1201,267L1199,168L1087,267Z" fill="#2f5d68" stroke="#2f5d68" stroke-width="1.51"/><path d="M1292,236L1199,168L1201,267Z" fill="#2e5867" stroke="#2e5867" stroke-width="1.51"/><path d="M215,771L335,766L221,655Z" fill="#2c5965" stroke="#2c5965" stroke-width="1.51"/><path d="M842,-83L741,-121L818,-24Z" fill="#296461" stroke="#296461" stroke-width="1.51"/><path d="M1271,494L1282,439L1211,439Z" fill="#396071" stroke="#396071" stroke-width="1.51"/><path d="M242,161L182,202L236,245Z" fill="#23635d" stroke="#23635d" stroke-width="1.51"/><path d="M174,470L101,550L149,596Z" fill="#2c6564" stroke="#2c6564" stroke-width="1.51"/><path d="M175,148L182,202L242,161Z" fill="#20625b" stroke="#20625b" stroke-width="1.51"/><path d="M1080,865L1206,807L1135,748Z" fill="#2e4b6c" stroke="#2e4b6c" stroke-width="1.51"/><path d="M1047,1015L1055,916L960,927Z" fill="#2e496c" stroke="#2e496c" stroke-width="1.51"/><path d="M149,693L215,771L221,655Z" fill="#2a5a64" stroke="#2a5a64" stroke-width="1.51"/><path d="M529,-51L414,-55L498,37Z" fill="#20625b" stroke="#20625b" stroke-width="1.51"/><path d="M705,-135L601,-118L671,-53Z" fill="#276760" stroke="#276760" stroke-width="1.51"/><path d="M363,35L238,63L356,146Z" fill="#1f615a" stroke="#1f615a" stroke-width="1.51"/><path d="M500,-111L414,-55L529,-51Z" fill="#20625b" stroke="#20625b" stroke-width="1.51"/><path d="M842,-83L936,-114L741,-121Z" fill="#286261" stroke="#286261" stroke-width="1.51"/><path d="M961,-16L936,-114L842,-83Z" fill="#275f60" stroke="#275f60" stroke-width="1.51"/><path d="M1113,-13L1002,-50L1020,56Z" fill="#25595f" stroke="#25595f" stroke-width="1.51"/><path d="M1113,-13L1020,56L1089,61Z" fill="#265960" stroke="#265960" stroke-width="1.51"/><path d="M698,1011L749,1041L752,901Z" fill="#35576f" stroke="#35576f" stroke-width="1.51"/><path d="M530,997L749,1041L562,992Z" fill="#32556c" stroke="#32556c" stroke-width="1.51"/><path d="M741,-121L705,-135L671,-53Z" fill="#296861" stroke="#296861" stroke-width="1.51"/><path d="M936,-114L705,-135L741,-121Z" fill="#296561" stroke="#296561" stroke-width="1.51"/><path d="M182,202L126,327L236,245Z" fill="#25655e" stroke="#25655e" stroke-width="1.51"/><path d="M414,-55L349,-19L431,33Z" fill="#1d6059" stroke="#1d6059" stroke-width="1.51"/><path d="M1276,693L1282,579L1200,685Z" fill="#32516e" stroke="#32516e" stroke-width="1.51"/><path d="M1396,491L1362,420L1282,439Z" fill="#375c70" stroke="#375c70" stroke-width="1.51"/><path d="M601,-118L500,-111L529,-51Z" fill="#23645d" stroke="#23645d" stroke-width="1.51"/><path d="M414,-55L412,-89L349,-19Z" fill="#1d6058" stroke="#1d6058" stroke-width="1.51"/><path d="M362,-141L500,-111L601,-118Z" fill="#20625b" stroke="#20625b" stroke-width="1.51"/><path d="M79,633L149,693L149,596Z" fill="#295d62" stroke="#295d62" stroke-width="1.51"/><path d="M149,596L149,693L221,655Z" fill="#2b5e63" stroke="#2b5e63" stroke-width="1.51"/><path d="M66,262L89,334L126,327Z" fill="#25655e" stroke="#25655e" stroke-width="1.51"/><path d="M349,-19L238,63L363,35Z" fill="#1b5f57" stroke="#1b5f57" stroke-width="1.51"/><path d="M79,512L101,550L174,470Z" fill="#2c6664" stroke="#2c6664" stroke-width="1.51"/><path d="M1359,325L1290,287L1282,439Z" fill="#325a6c" stroke="#325a6c" stroke-width="1.51"/><path d="M1282,439L1290,287L1211,439Z" fill="#355e6e" stroke="#355e6e" stroke-width="1.51"/><path d="M238,63L175,148L242,161Z" fill="#1e6059" stroke="#1e6059" stroke-width="1.51"/><path d="M1199,168L1195,91L1127,119Z" fill="#2a5863" stroke="#2a5863" stroke-width="1.51"/><path d="M1257,39L1195,91L1310,114Z" fill="#265260" stroke="#265260" stroke-width="1.51"/><path d="M1126,906L1206,807L1080,865Z" fill="#2c476c" stroke="#2c476c" stroke-width="1.51"/><path d="M1194,720L1276,693L1200,685Z" fill="#314f6d" stroke="#314f6d" stroke-width="1.51"/><path d="M149,693L173,766L215,771Z" fill="#285663" stroke="#285663" stroke-width="1.51"/><path d="M215,771L170,811L252,811Z" fill="#285362" stroke="#285362" stroke-width="1.51"/><path d="M254,902L322,948L358,858Z" fill="#284e63" stroke="#284e63" stroke-width="1.51"/><path d="M393,907L407,1029L512,958Z" fill="#2c5167" stroke="#2c5167" stroke-width="1.51"/><path d="M170,811L173,766L103,767Z" fill="#265361" stroke="#265361" stroke-width="1.51"/><path d="M1002,-50L936,-114L961,-16Z" fill="#265d5f" stroke="#265d5f" stroke-width="1.51"/><path d="M1021,-101L936,-114L1002,-50Z" fill="#265c5f" stroke="#265c5f" stroke-width="1.51"/><path d="M212,-8L190,42L238,63Z" fill="#175d55" stroke="#175d55" stroke-width="1.51"/><path d="M500,-111L412,-89L414,-55Z" fill="#1f615a" stroke="#1f615a" stroke-width="1.51"/><path d="M1055,916L1126,906L1080,865Z" fill="#2c476b" stroke="#2c476b" stroke-width="1.51"/><path d="M1084,980L1126,906L1055,916Z" fill="#2c466b" stroke="#2c466b" stroke-width="1.51"/><path d="M966,1025L960,927L865,999Z" fill="#304e6d" stroke="#304e6d" stroke-width="1.51"/><path d="M1263,771L1276,693L1194,720Z" fill="#2f4c6c" stroke="#2f4c6c" stroke-width="1.51"/><path d="M1195,91L1113,-13L1089,61Z" fill="#265760" stroke="#265760" stroke-width="1.51"/><path d="M254,902L358,858L252,811Z" fill="#295064" stroke="#295064" stroke-width="1.51"/><path d="M126,327L89,334L186,437Z" fill="#296861" stroke="#296861" stroke-width="1.51"/><path d="M66,262L126,327L182,202Z" fill="#23635d" stroke="#23635d" stroke-width="1.51"/><path d="M101,550L79,633L149,596Z" fill="#2a6063" stroke="#2a6063" stroke-width="1.51"/><path d="M52,436L79,512L174,470Z" fill="#2c6964" stroke="#2c6964" stroke-width="1.51"/><path d="M749,1041L966,1025L865,999Z" fill="#32516d" stroke="#32516d" stroke-width="1.51"/><path d="M1290,287L1292,236L1201,267Z" fill="#2f5868" stroke="#2f5868" stroke-width="1.51"/><path d="M1396,257L1292,236L1290,287Z" fill="#2d5568" stroke="#2d5568" stroke-width="1.51"/><path d="M187,907L254,902L252,811Z" fill="#264e62" stroke="#264e62" stroke-width="1.51"/><path d="M1113,-13L1021,-101L1002,-50Z" fill="#25595f" stroke="#25595f" stroke-width="1.51"/><path d="M173,766L170,811L215,771Z" fill="#285362" stroke="#285362" stroke-width="1.51"/><path d="M103,767L173,766L149,693Z" fill="#275562" stroke="#275562" stroke-width="1.51"/><path d="M1206,807L1263,771L1194,720Z" fill="#2e4a6c" stroke="#2e4a6c" stroke-width="1.51"/><path d="M1285,864L1263,771L1206,807Z" fill="#2c456b" stroke="#2c456b" stroke-width="1.51"/><path d="M305,1014L407,1029L322,948Z" fill="#294e64" stroke="#294e64" stroke-width="1.51"/><path d="M322,948L407,1029L393,907Z" fill="#2a4f65" stroke="#2a4f65" stroke-width="1.51"/><path d="M530,997L407,1029L749,1041Z" fill="#30546a" stroke="#30546a" stroke-width="1.51"/><path d="M1126,906L1223,908L1206,807Z" fill="#2a446b" stroke="#2a446b" stroke-width="1.51"/><path d="M1047,1015L1084,980L1055,916Z" fill="#2d476b" stroke="#2d476b" stroke-width="1.51"/><path d="M-4,641L79,633L-22,585Z" fill="#265c60" stroke="#265c60" stroke-width="1.51"/><path d="M89,334L52,436L186,437Z" fill="#2a6963" stroke="#2a6963" stroke-width="1.51"/><path d="M-22,585L79,633L101,550Z" fill="#285f61" stroke="#285f61" stroke-width="1.51"/><path d="M1282,579L1342,586L1271,494Z" fill="#35576f" stroke="#35576f" stroke-width="1.51"/><path d="M1276,693L1342,586L1282,579Z" fill="#32516e" stroke="#32516e" stroke-width="1.51"/><path d="M1358,698L1342,586L1276,693Z" fill="#304d6d" stroke="#304d6d" stroke-width="1.51"/><path d="M966,1025L1047,1015L960,927Z" fill="#2f4b6c" stroke="#2f4b6c" stroke-width="1.51"/><path d="M61,156L66,262L182,202Z" fill="#1f615a" stroke="#1f615a" stroke-width="1.51"/><path d="M89,334L-26,390L52,436Z" fill="#276760" stroke="#276760" stroke-width="1.51"/><path d="M238,63L190,42L175,148Z" fill="#1b5e57" stroke="#1b5e57" stroke-width="1.51"/><path d="M212,-8L238,63L349,-19Z" fill="#185d55" stroke="#185d55" stroke-width="1.51"/><path d="M1396,491L1282,439L1271,494Z" fill="#375b70" stroke="#375b70" stroke-width="1.51"/><path d="M61,156L182,202L175,148Z" fill="#1e6059" stroke="#1e6059" stroke-width="1.51"/><path d="M1310,114L1195,91L1199,168Z" fill="#295563" stroke="#295563" stroke-width="1.51"/><path d="M1362,420L1359,325L1282,439Z" fill="#345b6d" stroke="#345b6d" stroke-width="1.51"/><path d="M272,-96L212,-8L349,-19Z" fill="#185d55" stroke="#185d55" stroke-width="1.51"/><path d="M43,63L61,156L175,148Z" fill="#195d56" stroke="#195d56" stroke-width="1.51"/><path d="M170,811L187,907L252,811Z" fill="#264f61" stroke="#264f61" stroke-width="1.51"/><path d="M79,633L103,767L149,693Z" fill="#275861" stroke="#275861" stroke-width="1.51"/><path d="M95,865L187,907L170,811Z" fill="#244d5f" stroke="#244d5f" stroke-width="1.51"/><path d="M254,902L305,1014L322,948Z" fill="#274d63" stroke="#274d63" stroke-width="1.51"/><path d="M269,1042L305,1014L254,902Z" fill="#274d62" stroke="#274d62" stroke-width="1.51"/><path d="M412,-89L362,-141L349,-19Z" fill="#1c5f58" stroke="#1c5f58" stroke-width="1.51"/><path d="M500,-111L362,-141L412,-89Z" fill="#1e6159" stroke="#1e6159" stroke-width="1.51"/><path d="M705,-135L362,-141L601,-118Z" fill="#23645d" stroke="#23645d" stroke-width="1.51"/><path d="M1422,568L1396,491L1342,586Z" fill="#33536e" stroke="#33536e" stroke-width="1.51"/><path d="M1219,1028L1223,908L1126,906Z" fill="#29416a" stroke="#29416a" stroke-width="1.51"/><path d="M1277,903L1223,908L1267,978Z" fill="#273e69" stroke="#273e69" stroke-width="1.51"/><path d="M1113,-13L1136,-116L1021,-101Z" fill="#24575e" stroke="#24575e" stroke-width="1.51"/><path d="M1195,91L1219,-53L1113,-13Z" fill="#23535e" stroke="#23535e" stroke-width="1.51"/><path d="M1310,114L1199,168L1292,236Z" fill="#2a5564" stroke="#2a5564" stroke-width="1.51"/><path d="M1475,319L1396,257L1359,325Z" fill="#2e5368" stroke="#2e5368" stroke-width="1.51"/><path d="M1342,586L1396,491L1271,494Z" fill="#35576f" stroke="#35576f" stroke-width="1.51"/><path d="M1358,698L1276,693L1263,771Z" fill="#2e4a6c" stroke="#2e4a6c" stroke-width="1.51"/><path d="M1360,160L1310,114L1292,236Z" fill="#295364" stroke="#295364" stroke-width="1.51"/><path d="M1359,808L1358,698L1263,771Z" fill="#2c456b" stroke="#2c456b" stroke-width="1.51"/><path d="M362,-141L272,-96L349,-19Z" fill="#1a5e57" stroke="#1a5e57" stroke-width="1.51"/><path d="M146,-40L190,42L212,-8Z" fill="#145a53" stroke="#145a53" stroke-width="1.51"/><path d="M43,63L175,148L190,42Z" fill="#185d55" stroke="#185d55" stroke-width="1.51"/><path d="M-26,390L-21,496L52,436Z" fill="#296861" stroke="#296861" stroke-width="1.51"/><path d="M1223,908L1285,864L1206,807Z" fill="#29426a" stroke="#29426a" stroke-width="1.51"/><path d="M1219,-53L1136,-116L1113,-13Z" fill="#23535d" stroke="#23535d" stroke-width="1.51"/><path d="M1021,-101L1136,-116L936,-114Z" fill="#25595f" stroke="#25595f" stroke-width="1.51"/><path d="M936,-114L1136,-116L705,-135Z" fill="#275f60" stroke="#275f60" stroke-width="1.51"/><path d="M1396,257L1360,160L1292,236Z" fill="#2b5365" stroke="#2b5365" stroke-width="1.51"/><path d="M1310,114L1334,54L1257,39Z" fill="#24505f" stroke="#24505f" stroke-width="1.51"/><path d="M1257,39L1219,-53L1195,91Z" fill="#23515e" stroke="#23515e" stroke-width="1.51"/><path d="M1396,257L1290,287L1359,325Z" fill="#2f5668" stroke="#2f5668" stroke-width="1.51"/><path d="M1427,426L1359,325L1362,420Z" fill="#33586d" stroke="#33586d" stroke-width="1.51"/><path d="M1298,-57L1219,-53L1257,39Z" fill="#214f5d" stroke="#214f5d" stroke-width="1.51"/><path d="M1396,491L1427,426L1362,420Z" fill="#365a6f" stroke="#365a6f" stroke-width="1.51"/><path d="M1443,522L1427,426L1396,491Z" fill="#34566e" stroke="#34566e" stroke-width="1.51"/><path d="M79,633L-4,641L103,767Z" fill="#265860" stroke="#265860" stroke-width="1.51"/><path d="M52,436L-21,496L79,512Z" fill="#2a6762" stroke="#2a6762" stroke-width="1.51"/><path d="M-11,314L89,334L66,262Z" fill="#22635d" stroke="#22635d" stroke-width="1.51"/><path d="M1427,680L1422,568L1342,586Z" fill="#304d6d" stroke="#304d6d" stroke-width="1.51"/><path d="M1427,680L1342,586L1358,698Z" fill="#2e4b6c" stroke="#2e4b6c" stroke-width="1.51"/><path d="M9,216L-11,314L66,262Z" fill="#1f615a" stroke="#1f615a" stroke-width="1.51"/><path d="M1285,864L1359,808L1263,771Z" fill="#2a436a" stroke="#2a436a" stroke-width="1.51"/><path d="M1223,908L1277,903L1285,864Z" fill="#273e69" stroke="#273e69" stroke-width="1.51"/><path d="M1267,978L1223,908L1219,1028Z" fill="#273f6a" stroke="#273f6a" stroke-width="1.51"/><path d="M305,1014L269,1042L407,1029Z" fill="#284e64" stroke="#284e64" stroke-width="1.51"/><path d="M407,1029L269,1042L749,1041Z" fill="#2d5268" stroke="#2d5268" stroke-width="1.51"/><path d="M187,907L269,1042L254,902Z" fill="#254c61" stroke="#254c61" stroke-width="1.51"/><path d="M-22,585L101,550L79,512Z" fill="#296262" stroke="#296262" stroke-width="1.51"/><path d="M103,767L95,865L170,811Z" fill="#245060" stroke="#245060" stroke-width="1.51"/><path d="M187,907L143,1034L269,1042Z" fill="#244b60" stroke="#244b60" stroke-width="1.51"/><path d="M-11,314L-26,390L89,334Z" fill="#24645e" stroke="#24645e" stroke-width="1.51"/><path d="M-6,784L95,865L103,767Z" fill="#234f5e" stroke="#234f5e" stroke-width="1.51"/><path d="M61,156L9,216L66,262Z" fill="#1d5f58" stroke="#1d5f58" stroke-width="1.51"/><path d="M13,114L9,216L61,156Z" fill="#195d55" stroke="#195d55" stroke-width="1.51"/><path d="M-75,667L-22,585L-129,557Z" fill="#265d5f" stroke="#265d5f" stroke-width="1.51"/><path d="M-21,496L-22,585L79,512Z" fill="#286261" stroke="#286261" stroke-width="1.51"/><path d="M1508,502L1443,522L1533,597Z" fill="#32516d" stroke="#32516d" stroke-width="1.51"/><path d="M1422,568L1443,522L1396,491Z" fill="#32536e" stroke="#32536e" stroke-width="1.51"/><path d="M1388,932L1359,808L1285,864Z" fill="#263d69" stroke="#263d69" stroke-width="1.51"/><path d="M140,-89L212,-8L272,-96Z" fill="#155b53" stroke="#155b53" stroke-width="1.51"/><path d="M140,-89L146,-40L212,-8Z" fill="#125a52" stroke="#125a52" stroke-width="1.51"/><path d="M1359,808L1395,733L1358,698Z" fill="#2b446b" stroke="#2b446b" stroke-width="1.51"/><path d="M1356,4L1334,54L1459,49Z" fill="#214a5d" stroke="#214a5d" stroke-width="1.51"/><path d="M1360,160L1334,54L1310,114Z" fill="#265060" stroke="#265060" stroke-width="1.51"/><path d="M95,865L100,903L187,907Z" fill="#224a5e" stroke="#224a5e" stroke-width="1.51"/><path d="M-29,939L100,903L95,865Z" fill="#1f485c" stroke="#1f485c" stroke-width="1.51"/><path d="M1287,-83L1210,-101L1219,-53Z" fill="#21505d" stroke="#21505d" stroke-width="1.51"/><path d="M1219,-53L1210,-101L1136,-116Z" fill="#22525d" stroke="#22525d" stroke-width="1.51"/><path d="M1471,724L1427,680L1395,733Z" fill="#2b446b" stroke="#2b446b" stroke-width="1.51"/><path d="M1395,733L1427,680L1358,698Z" fill="#2c466b" stroke="#2c466b" stroke-width="1.51"/><path d="M84,-39L43,63L190,42Z" fill="#115952" stroke="#115952" stroke-width="1.51"/><path d="M1277,903L1388,932L1285,864Z" fill="#253b69" stroke="#253b69" stroke-width="1.51"/><path d="M1219,1028L1126,906L1084,980Z" fill="#2a446b" stroke="#2a446b" stroke-width="1.51"/><path d="M43,63L13,114L61,156Z" fill="#155b54" stroke="#155b54" stroke-width="1.51"/><path d="M9,216L-77,210L-11,314Z" fill="#1d6059" stroke="#1d6059" stroke-width="1.51"/><path d="M-121,303L-130,386L-26,390Z" fill="#24645e" stroke="#24645e" stroke-width="1.51"/><path d="M749,1041L1219,1028L966,1025Z" fill="#2f4b6c" stroke="#2f4b6c" stroke-width="1.51"/><path d="M966,1025L1219,1028L1047,1015Z" fill="#2c476b" stroke="#2c476b" stroke-width="1.51"/><path d="M1047,1015L1219,1028L1084,980Z" fill="#2b456b" stroke="#2b456b" stroke-width="1.51"/><path d="M-75,667L-6,784L-4,641Z" fill="#23555e" stroke="#23555e" stroke-width="1.51"/><path d="M-4,641L-6,784L103,767Z" fill="#24545f" stroke="#24545f" stroke-width="1.51"/><path d="M72,-141L140,-89L272,-96Z" fill="#125a52" stroke="#125a52" stroke-width="1.51"/><path d="M146,-40L84,-39L190,42Z" fill="#115952" stroke="#115952" stroke-width="1.51"/><path d="M1396,257L1468,219L1360,160Z" fill="#295064" stroke="#295064" stroke-width="1.51"/><path d="M1427,426L1475,319L1359,325Z" fill="#30556a" stroke="#30556a" stroke-width="1.51"/><path d="M1528,342L1475,319L1427,426Z" fill="#31546b" stroke="#31546b" stroke-width="1.51"/><path d="M1508,502L1427,426L1443,522Z" fill="#34556e" stroke="#34556e" stroke-width="1.51"/><path d="M1356,4L1298,-57L1257,39Z" fill="#204d5c" stroke="#204d5c" stroke-width="1.51"/><path d="M1356,4L1257,39L1334,54Z" fill="#224d5e" stroke="#224d5e" stroke-width="1.51"/><path d="M43,63L-5,70L13,114Z" fill="#125a52" stroke="#125a52" stroke-width="1.51"/><path d="M140,-89L84,-39L146,-40Z" fill="#115951" stroke="#115951" stroke-width="1.51"/><path d="M1459,49L1334,54L1360,160Z" fill="#234c5f" stroke="#234c5f" stroke-width="1.51"/><path d="M1399,-110L1287,-83L1298,-57Z" fill="#204b5c" stroke="#204b5c" stroke-width="1.51"/><path d="M1298,-57L1287,-83L1219,-53Z" fill="#214e5d" stroke="#214e5d" stroke-width="1.51"/><path d="M1475,319L1468,219L1396,257Z" fill="#2c5167" stroke="#2c5167" stroke-width="1.51"/><path d="M85,988L187,907L100,903Z" fill="#22495e" stroke="#22495e" stroke-width="1.51"/><path d="M85,988L143,1034L187,907Z" fill="#224a5e" stroke="#224a5e" stroke-width="1.51"/><path d="M-14,-24L-5,70L43,63Z" fill="#0d574f" stroke="#0d574f" stroke-width="1.51"/><path d="M13,114L-77,210L9,216Z" fill="#185d56" stroke="#185d56" stroke-width="1.51"/><path d="M1533,597L1443,522L1422,568Z" fill="#314f6d" stroke="#314f6d" stroke-width="1.51"/><path d="M1475,319L1536,250L1468,219Z" fill="#2b5066" stroke="#2b5066" stroke-width="1.51"/><path d="M-22,585L-75,667L-4,641Z" fill="#255a5f" stroke="#255a5f" stroke-width="1.51"/><path d="M-129,557L-22,585L-21,496Z" fill="#276160" stroke="#276160" stroke-width="1.51"/><path d="M-124,475L-21,496L-26,390Z" fill="#296862" stroke="#296862" stroke-width="1.51"/><path d="M1427,680L1533,597L1422,568Z" fill="#2f4b6c" stroke="#2f4b6c" stroke-width="1.51"/><path d="M1472,832L1471,724L1395,733Z" fill="#28406a" stroke="#28406a" stroke-width="1.51"/><path d="M1472,832L1395,733L1359,808Z" fill="#283f6a" stroke="#283f6a" stroke-width="1.51"/><path d="M-29,939L85,988L100,903Z" fill="#1f485c" stroke="#1f485c" stroke-width="1.51"/><path d="M-33,826L95,865L-6,784Z" fill="#214c5d" stroke="#214c5d" stroke-width="1.51"/><path d="M-73,91L-77,210L13,114Z" fill="#155b54" stroke="#155b54" stroke-width="1.51"/><path d="M1569,179L1462,143L1468,219Z" fill="#274d63" stroke="#274d63" stroke-width="1.51"/><path d="M1468,219L1462,143L1360,160Z" fill="#274d62" stroke="#274d62" stroke-width="1.51"/><path d="M-71,839L-33,826L-123,730Z" fill="#214e5d" stroke="#214e5d" stroke-width="1.51"/><path d="M-130,386L-124,475L-26,390Z" fill="#286760" stroke="#286760" stroke-width="1.51"/><path d="M1543,407L1528,342L1427,426Z" fill="#32556c" stroke="#32556c" stroke-width="1.51"/><path d="M1267,978L1388,932L1277,903Z" fill="#253c69" stroke="#253c69" stroke-width="1.51"/><path d="M1350,1033L1388,932L1267,978Z" fill="#253b68" stroke="#253b68" stroke-width="1.51"/><path d="M-121,303L-26,390L-11,314Z" fill="#23635d" stroke="#23635d" stroke-width="1.51"/><path d="M-77,210L-121,303L-11,314Z" fill="#1f615a" stroke="#1f615a" stroke-width="1.51"/><path d="M-124,475L-129,557L-21,496Z" fill="#286461" stroke="#286461" stroke-width="1.51"/><path d="M-123,730L-33,826L-6,784Z" fill="#214f5d" stroke="#214f5d" stroke-width="1.51"/><path d="M-130,386L-129,557L-124,475Z" fill="#296661" stroke="#296661" stroke-width="1.51"/><path d="M1508,502L1543,407L1427,426Z" fill="#34586f" stroke="#34586f" stroke-width="1.51"/><path d="M1533,597L1543,407L1508,502Z" fill="#33546e" stroke="#33546e" stroke-width="1.51"/><path d="M1520,687L1533,597L1427,680Z" fill="#2d486c" stroke="#2d486c" stroke-width="1.51"/><path d="M1520,687L1427,680L1471,724Z" fill="#2b456b" stroke="#2b456b" stroke-width="1.51"/><path d="M1559,723L1520,687L1471,724Z" fill="#2a446b" stroke="#2a446b" stroke-width="1.51"/><path d="M1388,932L1472,832L1359,808Z" fill="#253a69" stroke="#253a69" stroke-width="1.51"/><path d="M-77,210L-119,175L-121,303Z" fill="#1c5f58" stroke="#1c5f58" stroke-width="1.51"/><path d="M-5,70L-73,91L13,114Z" fill="#125952" stroke="#125952" stroke-width="1.51"/><path d="M-75,-5L-73,91L-5,70Z" fill="#0e5850" stroke="#0e5850" stroke-width="1.51"/><path d="M-14,-24L43,63L84,-39Z" fill="#0c574f" stroke="#0c574f" stroke-width="1.51"/><path d="M1528,342L1536,250L1475,319Z" fill="#2d5268" stroke="#2d5268" stroke-width="1.51"/><path d="M1569,179L1536,250L1528,342Z" fill="#2b5066" stroke="#2b5066" stroke-width="1.51"/><path d="M1556,88L1459,49L1462,143Z" fill="#234a5f" stroke="#234a5f" stroke-width="1.51"/><path d="M1462,143L1459,49L1360,160Z" fill="#244b60" stroke="#244b60" stroke-width="1.51"/><path d="M1356,4L1399,-110L1298,-57Z" fill="#1f4a5c" stroke="#1f4a5c" stroke-width="1.51"/><path d="M-30,-100L-14,-24L84,-39Z" fill="#0a564e" stroke="#0a564e" stroke-width="1.51"/><path d="M-33,826L-29,939L95,865Z" fill="#1f485c" stroke="#1f485c" stroke-width="1.51"/><path d="M-123,730L-6,784L-75,667Z" fill="#23535d" stroke="#23535d" stroke-width="1.51"/><path d="M1388,932L1454,921L1472,832Z" fill="#223667" stroke="#223667" stroke-width="1.51"/><path d="M1219,1028L1350,1033L1267,978Z" fill="#263d69" stroke="#263d69" stroke-width="1.51"/><path d="M749,1041L1350,1033L1219,1028Z" fill="#2c456b" stroke="#2c456b" stroke-width="1.51"/><path d="M140,-89L72,-141L84,-39Z" fill="#0f5850" stroke="#0f5850" stroke-width="1.51"/><path d="M362,-141L72,-141L272,-96Z" fill="#165c54" stroke="#165c54" stroke-width="1.51"/><path d="M-75,-5L-119,175L-73,91Z" fill="#115952" stroke="#115952" stroke-width="1.51"/><path d="M-73,91L-119,175L-77,210Z" fill="#175c55" stroke="#175c55" stroke-width="1.51"/><path d="M-121,303L-119,175L-130,386Z" fill="#20615a" stroke="#20615a" stroke-width="1.51"/><path d="M-129,557L-123,730L-75,667Z" fill="#25595f" stroke="#25595f" stroke-width="1.51"/><path d="M-69,944L-29,939L-71,839Z" fill="#1d465b" stroke="#1d465b" stroke-width="1.51"/><path d="M-71,839L-29,939L-33,826Z" fill="#1f495b" stroke="#1f495b" stroke-width="1.51"/><path d="M85,988L13,1031L143,1034Z" fill="#20485d" stroke="#20485d" stroke-width="1.51"/><path d="M1476,997L1454,921L1388,932Z" fill="#213667" stroke="#213667" stroke-width="1.51"/><path d="M1552,821L1559,723L1471,724Z" fill="#29406a" stroke="#29406a" stroke-width="1.51"/><path d="M1455,-36L1356,4L1459,49Z" fill="#1e475b" stroke="#1e475b" stroke-width="1.51"/><path d="M1455,-36L1399,-110L1356,4Z" fill="#1e485b" stroke="#1e485b" stroke-width="1.51"/><path d="M1287,-83L1399,-110L1210,-101Z" fill="#204d5c" stroke="#204d5c" stroke-width="1.51"/><path d="M1210,-101L1399,-110L1136,-116Z" fill="#214f5d" stroke="#214f5d" stroke-width="1.51"/><path d="M1136,-116L1520,-139L705,-135Z" fill="#23555e" stroke="#23555e" stroke-width="1.51"/><path d="M1552,821L1471,724L1472,832Z" fill="#273e69" stroke="#273e69" stroke-width="1.51"/><path d="M1520,687L1559,723L1533,597Z" fill="#2c476b" stroke="#2c476b" stroke-width="1.51"/><path d="M1533,597L1559,723L1543,407Z" fill="#304e6d" stroke="#304e6d" stroke-width="1.51"/><path d="M1543,407L1569,179L1528,342Z" fill="#2e5268" stroke="#2e5268" stroke-width="1.51"/><path d="M1571,-23L1455,-36L1459,49Z" fill="#1d465b" stroke="#1d465b" stroke-width="1.51"/><path d="M-29,939L13,1031L85,988Z" fill="#1e475b" stroke="#1e475b" stroke-width="1.51"/><path d="M143,1034L13,1031L269,1042Z" fill="#224a5f" stroke="#224a5f" stroke-width="1.51"/><path d="M-14,-24L-75,-5L-5,70Z" fill="#0b564e" stroke="#0b564e" stroke-width="1.51"/><path d="M-30,-100L-75,-5L-14,-24Z" fill="#09564e" stroke="#09564e" stroke-width="1.51"/><path d="M1536,250L1569,179L1468,219Z" fill="#294f64" stroke="#294f64" stroke-width="1.51"/><path d="M1559,723L1569,179L1543,407Z" fill="#34576e" stroke="#34576e" stroke-width="1.51"/><path d="M-29,939L-77,1014L13,1031Z" fill="#1d465b" stroke="#1d465b" stroke-width="1.51"/><path d="M-123,730L-69,944L-71,839Z" fill="#204b5c" stroke="#204b5c" stroke-width="1.51"/><path d="M72,-141L-30,-100L84,-39Z" fill="#0c574f" stroke="#0c574f" stroke-width="1.51"/><path d="M1542,933L1472,832L1454,921Z" fill="#223667" stroke="#223667" stroke-width="1.51"/><path d="M1542,933L1552,821L1472,832Z" fill="#233968" stroke="#233968" stroke-width="1.51"/><path d="M1569,179L1556,88L1462,143Z" fill="#254b61" stroke="#254b61" stroke-width="1.51"/><path d="M1455,-36L1474,-84L1399,-110Z" fill="#1d465b" stroke="#1d465b" stroke-width="1.51"/><path d="M1571,-23L1474,-84L1455,-36Z" fill="#1d465b" stroke="#1d465b" stroke-width="1.51"/><path d="M1350,1033L1476,997L1388,932Z" fill="#223768" stroke="#223768" stroke-width="1.51"/><path d="M-123,730L-77,1014L-69,944Z" fill="#1d475b" stroke="#1d475b" stroke-width="1.51"/><path d="M-69,944L-77,1014L-29,939Z" fill="#1d465b" stroke="#1d465b" stroke-width="1.51"/><path d="M1476,997L1542,933L1454,921Z" fill="#213667" stroke="#213667" stroke-width="1.51"/><path d="M1476,997L1518,1006L1542,933Z" fill="#213667" stroke="#213667" stroke-width="1.51"/><path d="M1350,1033L1518,1006L1476,997Z" fill="#213667" stroke="#213667" stroke-width="1.51"/><path d="M1569,179L1571,-23L1556,88Z" fill="#224a5e" stroke="#224a5e" stroke-width="1.51"/><path d="M1556,88L1571,-23L1459,49Z" fill="#1f485c" stroke="#1f485c" stroke-width="1.51"/><path d="M-30,-100L-115,-121L-75,-5Z" fill="#09564e" stroke="#09564e" stroke-width="1.51"/><path d="M-75,-5L-115,-121L-119,175Z" fill="#0b564e" stroke="#0b564e" stroke-width="1.51"/><path d="M-119,175L-115,-121L-130,386Z" fill="#165c54" stroke="#165c54" stroke-width="1.51"/><path d="M72,-141L-115,-121L-30,-100Z" fill="#09564e" stroke="#09564e" stroke-width="1.51"/><path d="M1571,-23L1520,-139L1474,-84Z" fill="#1d465b" stroke="#1d465b" stroke-width="1.51"/><path d="M1474,-84L1520,-139L1399,-110Z" fill="#1d465b" stroke="#1d465b" stroke-width="1.51"/><path d="M1399,-110L1520,-139L1136,-116Z" fill="#1f4a5c" stroke="#1f4a5c" stroke-width="1.51"/><path d="M705,-135L1520,-139L362,-141Z" fill="#276160" stroke="#276160" stroke-width="1.51"/></svg>